<svg width="1200" height="209" viewBox="0 0 1200 209" fill="none" xmlns="http://www.w3.org/2000/svg">
<path d="M1240.5 375V213.5L1097 152L1021.5 27.5L605.5 65L197 40L116 152L-11 204L-36 375H1240.5Z" fill="white"/>
<path d="M602.054 80.1415C313.576 80.1415 136.743 35.0686 129.346 33.1528L137.967 0.0532148C139.723 0.532148 318.365 45.9776 602.054 45.9776C885.743 45.9776 1064.39 0.478933 1066.14 0L1074.76 33.0996C1067.37 35.0154 890.585 80.0883 602.054 80.0883V80.1415Z" fill="#FFC2A0"/>
<path d="M0.0864751 209.561L-3 175.503C130.516 163.53 169.789 29.2157 171.385 23.5217L204.325 32.6747C203.9 34.3243 157.39 195.459 0.0332894 209.561H0.0864751Z" fill="#FFC2A0"/>
<path d="M1203.97 209.561C1046.61 195.406 1000.1 34.2711 999.675 32.6747L1032.61 23.5217C1034.21 29.2157 1073.48 163.53 1207 175.503L1203.91 209.561H1203.97Z" fill="#FFC2A0"/>
</svg>
