<svg width="134" height="161" viewBox="0 0 134 161" fill="none" xmlns="http://www.w3.org/2000/svg">
<g clip-path="url(#clip0_45_1921)">
<path d="M104.804 122.207H36.679V102.628H104.804C110.106 102.628 114.421 98.3123 114.421 93.0099C114.421 87.7075 110.106 83.3921 104.804 83.3921H1.3772V63.8123H104.781C120.871 63.8123 133.977 76.919 133.977 93.0099C133.977 109.101 120.871 122.207 104.781 122.207H104.804Z" fill="#FFC2A0"/>
<path d="M132.531 161H29.1963C13.1062 161 0 147.893 0 131.802C0 115.712 13.1062 102.605 29.1963 102.605H97.321V122.185H29.1963C23.8941 122.185 19.579 126.5 19.579 131.802C19.579 137.105 23.8941 141.42 29.1963 141.42H132.531V161Z" fill="#FFC2A0"/>
<path d="M41.3155 60.9661C58.1501 60.9661 71.7972 47.3183 71.7972 30.483C71.7972 13.6477 58.1501 0 41.3155 0C24.481 0 10.8339 13.6477 10.8339 30.483C10.8339 47.3183 24.481 60.9661 41.3155 60.9661Z" fill="white"/>
<path d="M19.7668 52.0414L41.3206 73.5962L62.8744 52.0414L41.3206 30.4867L19.7668 52.0414Z" fill="white"/>
<path d="M41.3156 42.9472C48.199 42.9472 53.7791 37.3668 53.7791 30.4831C53.7791 23.5994 48.199 18.019 41.3156 18.019C34.4322 18.019 28.8521 23.5994 28.8521 30.4831C28.8521 37.3668 34.4322 42.9472 41.3156 42.9472Z" fill="#EC8144"/>
</g>
<defs>
<clipPath id="clip0_45_1921">
<rect width="134" height="161" fill="white"/>
</clipPath>
</defs>
</svg>
