<svg width="335" height="401" viewBox="0 0 335 401" fill="none" xmlns="http://www.w3.org/2000/svg">
<g opacity="0.2">
<mask id="mask0_52_7059" style="mask-type:luminance" maskUnits="userSpaceOnUse" x="-68" y="0" width="403" height="401">
<path d="M334.319 0H-67.0001V400.879H334.319V0Z" fill="white"/>
</mask>
<g mask="url(#mask0_52_7059)">
<g style="mix-blend-mode:multiply">
<path d="M47.9748 101.673L62.1874 172.478L61.566 175.51L15.5383 242.984L-19.6589 360.252H20.1316L23.8519 362.806L31.3004 382.165L144.49 432.832L224.724 261.926V207.023L228.122 203.079L296.982 192.677L282.699 -25.1179L228.468 -11.3609L-12.1948 -6.30902L15.5147 53.4332L47.9748 101.673Z" fill="#FF7A30"/>
</g>
<mask id="mask1_52_7059" style="mask-type:luminance" maskUnits="userSpaceOnUse" x="-20" y="-26" width="317" height="459">
<path d="M47.9748 101.673L62.1874 172.478L61.566 175.51L15.5383 242.984L-19.6589 360.252H20.1316L23.8519 362.806L31.3004 382.165L144.49 432.832L224.724 261.926V207.023L228.122 203.079L296.982 192.677L282.699 -25.1179L228.468 -11.3609L-12.1948 -6.30902L15.5147 53.4332L47.9748 101.673Z" fill="white"/>
</mask>
<g mask="url(#mask1_52_7059)">
<path d="M239.125 212.17L234.068 173.146L215.474 168.377L204.321 176.681H175.306V173.656H203.314L214.821 165.077L236.813 170.718L242.13 211.785L239.125 212.17Z" fill="#FF7A30"/>
<path d="M250.074 204.015L249.114 203.708L257.986 175.825L177.147 95.3959L177.863 94.6809L259.135 175.542L250.074 204.015Z" fill="#FF7A30"/>
<path d="M114.89 60.4472L18.7424 79.0291L18.9352 80.0241L115.083 61.4423L114.89 60.4472Z" fill="#FF7A30"/>
<path d="M98.0215 421.708L95.599 419.893L141.477 358.642L129.034 344.068H99.1777L89.3461 329.077L98.6271 303.724L143.412 209.679L146.149 210.983L101.404 304.957L92.7203 328.692L100.822 341.035H130.427L145.355 358.516L98.0215 421.708Z" fill="#FF7A30"/>
<path d="M179.498 228.692L131.386 204.305L131.85 203.41L179.026 227.317L203.362 174.953L204.282 175.385L179.498 228.692Z" fill="#FF7A30"/>
<path d="M227.65 144.665L226.721 144.272L237.89 118.243L278.916 104.109L294.371 52.4199L295.338 52.7106L279.734 104.895L238.645 119.052L227.65 144.665Z" fill="#FF7A30"/>
<path d="M138.654 267.724L110.236 253.912L110.677 253.009L138.182 266.373L182.267 174.953L183.171 175.385L138.654 267.724Z" fill="#FF7A30"/>
<path d="M165.946 256.678L116.096 232.872L116.529 231.961L165.475 255.327L178.806 227.789L179.719 228.229L165.946 256.678Z" fill="#FF7A30"/>
<path d="M45.6546 360.465L35.0601 356.474L69.3764 303.158L112.738 220.498L130.065 149.324L131.04 149.568L113.689 220.859L70.2494 303.661L36.5859 355.971L46.0086 359.522L45.6546 360.465Z" fill="#FF7A30"/>
<path d="M115.792 140.82L103.042 239.016L104.048 239.146L116.798 140.951L115.792 140.82Z" fill="#FF7A30"/>
<path d="M83.2115 212.516L40.5973 199.458L40.8962 198.491L83.1643 211.439L108.231 201.123L108.616 202.058L83.2115 212.516Z" fill="#FF7A30"/>
<path d="M35.9959 338.945L18.5507 331.033L-8.34863 312.806L-7.78233 311.965L19.0777 330.177L35.6498 337.68L55.8715 309.192H65.7661V310.198H56.3907L35.9959 338.945Z" fill="#FF7A30"/>
<path d="M-1.56071 287.971L-2.30005 287.288L28.4769 253.983L54.4009 227.797V209.153H55.4077V228.213L29.2083 254.682L-1.56071 287.971Z" fill="#FF7A30"/>
<path d="M22.6879 67.874L21.6969 67.6541L28.3588 37.5551L34.9735 16.1063L50.0356 -2.06616L50.8142 -1.42191L35.878 16.6013L29.3341 37.8144L22.6879 67.874Z" fill="#FF7A30"/>
<path d="M259.063 46.5274H258.057V10.4573L188.197 13.5529L188.158 12.5394L259.063 9.40454V46.5274Z" fill="#FF7A30"/>
<path d="M258.568 33.7365L258.552 32.7229L268.305 32.5108L294.567 14.0476L295.149 14.8726L268.636 33.5086L258.568 33.7365Z" fill="#FF7A30"/>
<path d="M143.656 359.027L143.176 358.139L167.299 345.089L174.873 320.089L197.132 303.606L209.929 245.514L227.531 227.655L228.247 228.362L210.857 246.016L198.044 304.195L175.746 320.702L168.14 345.781L143.656 359.027Z" fill="#FF7A30"/>
<path d="M124.63 431.466L123.623 431.403L126.25 388.733L189.527 342.552L190.124 343.369L127.233 389.267L124.63 431.466Z" fill="#FF7A30"/>
<path d="M179.64 415.54L152.662 367.929L64.3035 221.142L50.8932 206.851L2.14407 187.311L-55.7209 182.817L-55.1704 175.77L3.78004 180.342L54.9832 200.872L69.9823 216.852L158.797 364.401L185.799 412.06L179.64 415.54Z" fill="#FF7A30"/>
<path d="M254.4 282.448L217.236 256.301L199.044 210.85L167.63 171.166L102.057 137.594L72.8685 102.035L13.4226 67.882L-62.682 70.6711L-62.9495 63.6079L15.1844 60.7402L77.5248 96.551L106.595 131.969L172.231 165.58L205.234 207.275L223.033 251.721L258.474 276.665L254.4 282.448Z" fill="#FF7A30"/>
<path d="M114.72 64.5744L74.2684 53.0251L-44.4189 22.4154L-42.6493 15.5723L76.1718 46.2133L115.247 57.3698L229.081 42.2693L377.279 57.4562L376.556 64.488L229.191 49.3874L114.72 64.5744Z" fill="#FF7A30"/>
<path d="M-15.8051 434.86L-17.5826 428.016L35.0519 414.417L42.3903 359.027L62.9816 312.492L80.9853 303.024L174.134 93.911L186.262 41.7426L181.543 -41.499L188.606 -41.8997L193.38 42.3476L180.875 96.1658L86.4595 308.139L68.4637 317.599L49.2724 360.96L41.4464 420.065L-15.8051 434.86Z" fill="#FF7A30"/>
</g>
</g>
</g>
</svg>
